<svg width="1440" height="409" viewBox="0 0 1440 409" fill="none" xmlns="http://www.w3.org/2000/svg">
<g clip-path="url(#clip0_920_784)">
<g filter="url(#filter0_df_920_784)">
<path d="M1395 236.5C1395 322.933 1298.97 393 1180.5 393C1062.03 393 966 322.933 966 236.5C966 150.067 1062.03 80 1180.5 80C1298.97 80 1395 150.067 1395 236.5Z" fill="#FCE8C7" fill-opacity="0.5" shape-rendering="crispEdges"/>
</g>
<rect x="1395" y="200" width="16" height="74" rx="8" fill="#FF0000"/>
<g filter="url(#filter1_df_920_784)">
<path d="M289 256C289 349.336 186.473 425 60 425C-66.4732 425 -169 349.336 -169 256C-169 162.664 -66.4732 87 60 87C186.473 87 289 162.664 289 256Z" fill="#FCE8C7" fill-opacity="0.5" shape-rendering="crispEdges"/>
</g>
</g>
<defs>
<filter id="filter0_df_920_784" x="879.4" y="-6.6" width="602.2" height="486.2" filterUnits="userSpaceOnUse" color-interpolation-filters="sRGB">
<feFlood flood-opacity="0" result="BackgroundImageFix"/>
<feColorMatrix in="SourceAlpha" type="matrix" values="0 0 0 0 0 0 0 0 0 0 0 0 0 0 0 0 0 0 127 0" result="hardAlpha"/>
<feOffset dy="4"/>
<feGaussianBlur stdDeviation="2"/>
<feComposite in2="hardAlpha" operator="out"/>
<feColorMatrix type="matrix" values="0 0 0 0 0 0 0 0 0 0 0 0 0 0 0 0 0 0 0.25 0"/>
<feBlend mode="normal" in2="BackgroundImageFix" result="effect1_dropShadow_920_784"/>
<feBlend mode="normal" in="SourceGraphic" in2="effect1_dropShadow_920_784" result="shape"/>
<feGaussianBlur stdDeviation="43.3" result="effect2_foregroundBlur_920_784"/>
</filter>
<filter id="filter1_df_920_784" x="-255.6" y="0.400002" width="631.2" height="511.2" filterUnits="userSpaceOnUse" color-interpolation-filters="sRGB">
<feFlood flood-opacity="0" result="BackgroundImageFix"/>
<feColorMatrix in="SourceAlpha" type="matrix" values="0 0 0 0 0 0 0 0 0 0 0 0 0 0 0 0 0 0 127 0" result="hardAlpha"/>
<feOffset dy="4"/>
<feGaussianBlur stdDeviation="2"/>
<feComposite in2="hardAlpha" operator="out"/>
<feColorMatrix type="matrix" values="0 0 0 0 0 0 0 0 0 0 0 0 0 0 0 0 0 0 0.25 0"/>
<feBlend mode="normal" in2="BackgroundImageFix" result="effect1_dropShadow_920_784"/>
<feBlend mode="normal" in="SourceGraphic" in2="effect1_dropShadow_920_784" result="shape"/>
<feGaussianBlur stdDeviation="43.3" result="effect2_foregroundBlur_920_784"/>
</filter>
<clipPath id="clip0_920_784">
<rect width="1440" height="409" fill="white"/>
</clipPath>
</defs>
</svg>
